<svg xmlns="http://www.w3.org/2000/svg" width="470.517" height="109.29"><defs><clipPath><path d="M0 960h560v-960h-560v960z"/></clipPath><clipPath><path d="M0 960h560v-960h-560v960z"/></clipPath><clipPath><path d="M0 960h560v-960h-560v960z"/></clipPath><clipPath><path d="M0 960h560v-960h-560v960z"/></clipPath><clipPath><path d="M0 960h560v-960h-560v960z"/></clipPath><clipPath><path d="M0 960h560v-960h-560v960z"/></clipPath></defs><g><g font-size="51.331" font-weight="bold" font-family="Ubuntu"><path d="M164.272 77.116c-.471-1.54-1.005-3.123-1.604-4.748l-1.668-4.876h-17.324c-.556 1.625-1.134 3.251-1.732 4.876-.556 1.625-1.069 3.208-1.54 4.748h-10.395c1.668-4.791 3.251-9.218 4.748-13.282 1.497-4.064 2.952-7.892 4.363-11.485 1.454-3.593 2.866-6.994 4.235-10.202 1.412-3.251 2.866-6.416 4.363-9.496h9.56c1.454 3.08 2.887 6.245 4.299 9.496 1.412 3.208 2.823 6.609 4.235 10.202 1.454 3.593 2.93 7.422 4.427 11.485 1.497 4.064 3.08 8.491 4.748 13.282h-10.715m-11.999-34.392c-.214.642-.535 1.519-.962 2.631-.428 1.112-.92 2.395-1.476 3.85-.556 1.454-1.176 3.058-1.861 4.812-.642 1.754-1.305 3.593-1.989 5.518h12.64c-.684-1.925-1.347-3.764-1.989-5.518-.642-1.754-1.262-3.358-1.861-4.812-.556-1.454-1.048-2.738-1.476-3.85-.428-1.112-.77-1.989-1.027-2.631" style="-inkscape-font-specification:Ubuntu-Bold"/><path d="M180.121 44.52c1.625-.471 3.721-.898 6.288-1.283 2.567-.428 5.261-.642 8.085-.642 2.866 0 5.24.385 7.122 1.155 1.925.727 3.443 1.775 4.556 3.144 1.112 1.369 1.903 2.994 2.374 4.876.471 1.882.706 3.978.706 6.288v19.057h-9.56v-17.902c0-3.08-.406-5.261-1.219-6.545-.813-1.283-2.331-1.925-4.556-1.925-.684 0-1.412.043-2.182.128-.77.043-1.454.107-2.053.192v26.051h-9.56v-32.595" style="-inkscape-font-specification:Ubuntu-Bold"/><path d="M230.81 70.443c.941 0 1.839-.021 2.695-.064.855-.043 1.54-.107 2.053-.192v-7.251c-.385-.086-.962-.171-1.732-.257s-1.476-.128-2.117-.128c-.898 0-1.754.064-2.567.192-.77.086-1.454.278-2.053.577-.599.299-1.069.706-1.412 1.219-.342.513-.513 1.155-.513 1.925 0 1.497.492 2.545 1.476 3.144 1.027.556 2.417.834 4.171.834m-.77-27.975c2.823 0 5.176.321 7.058.962 1.882.642 3.379 1.561 4.491 2.759 1.155 1.198 1.968 2.652 2.438 4.363.471 1.711.706 3.615.706 5.711v19.891c-1.369.299-3.272.642-5.711 1.027-2.438.428-5.39.642-8.855.642-2.182 0-4.171-.193-5.967-.577-1.754-.385-3.272-1.005-4.556-1.861-1.283-.898-2.267-2.053-2.952-3.465-.684-1.412-1.027-3.144-1.027-5.197 0-1.968.385-3.636 1.155-5.005.813-1.369 1.882-2.46 3.208-3.272 1.326-.813 2.845-1.39 4.556-1.732 1.711-.385 3.486-.577 5.326-.577 1.24 0 2.331.064 3.272.192.984.086 1.775.214 2.374.385v-.898c0-1.625-.492-2.93-1.476-3.914s-2.695-1.476-5.133-1.476c-1.625 0-3.23.128-4.812.385-1.583.214-2.952.535-4.106.962l-1.219-7.7c.556-.171 1.24-.342 2.053-.513.856-.214 1.775-.385 2.759-.513.984-.171 2.01-.299 3.08-.385 1.112-.128 2.224-.192 3.337-.192" style="-inkscape-font-specification:Ubuntu-Bold"/><path d="M266.871 77.757c-2.78-.043-5.048-.342-6.801-.898-1.711-.556-3.08-1.326-4.106-2.31-.984-1.027-1.668-2.246-2.053-3.657-.342-1.454-.513-3.08-.513-4.876v-37.151l9.56-1.54v36.766c0 .856.064 1.625.192 2.31.128.684.364 1.262.706 1.732.385.471.92.856 1.604 1.155.684.299 1.604.492 2.759.577l-1.347 7.892" style="-inkscape-font-specification:Ubuntu-Bold"/><path d="M302.931 43.365c-1.925 6.502-3.935 12.598-6.031 18.287-2.096 5.689-4.385 11.207-6.866 16.554-.898 1.925-1.797 3.55-2.695 4.876-.898 1.369-1.882 2.481-2.952 3.337-1.069.898-2.289 1.54-3.657 1.925-1.326.428-2.887.642-4.684.642-1.497 0-2.887-.15-4.171-.449-1.24-.257-2.267-.556-3.08-.898l1.668-7.635c.984.342 1.861.577 2.631.706.77.128 1.583.192 2.438.192 1.711 0 3.016-.471 3.914-1.412.941-.898 1.732-2.16 2.374-3.786-2.182-4.278-4.363-9.068-6.545-14.373-2.182-5.347-4.235-11.336-6.16-17.966h10.138c.428 1.668.92 3.486 1.476 5.454.599 1.925 1.219 3.893 1.861 5.903.642 1.968 1.283 3.893 1.925 5.775.684 1.882 1.326 3.593 1.925 5.133.556-1.54 1.134-3.251 1.732-5.133.599-1.882 1.176-3.807 1.732-5.775.599-2.01 1.155-3.978 1.668-5.903.556-1.968 1.048-3.786 1.476-5.454h9.881" style="-inkscape-font-specification:Ubuntu-Bold"/><path d="M334.243 49.782c-.77.856-1.818 2.01-3.144 3.465-1.283 1.454-2.674 3.058-4.171 4.812-1.497 1.754-3.016 3.593-4.556 5.518-1.497 1.925-2.866 3.786-4.106 5.582h16.298v7.956h-27.911v-5.646c.898-1.54 1.968-3.187 3.208-4.941 1.283-1.797 2.609-3.593 3.978-5.39 1.412-1.797 2.802-3.529 4.171-5.197 1.369-1.711 2.631-3.251 3.786-4.62h-14.373v-7.956h26.82v6.416" style="-inkscape-font-specification:Ubuntu-Bold"/><path d="M338.413 60.497c0-2.994.449-5.604 1.347-7.828.941-2.267 2.16-4.149 3.657-5.646 1.497-1.497 3.208-2.631 5.133-3.401 1.968-.77 3.978-1.155 6.031-1.155 4.791 0 8.577 1.476 11.357 4.427 2.78 2.909 4.171 7.208 4.171 12.897 0 .556-.021 1.176-.064 1.861-.043.642-.086 1.219-.128 1.732h-21.687c.214 1.968 1.134 3.529 2.759 4.684 1.625 1.155 3.807 1.732 6.545 1.732 1.754 0 3.465-.15 5.133-.449 1.711-.342 3.101-.749 4.171-1.219l1.283 7.764c-.513.257-1.198.513-2.053.77-.856.257-1.818.471-2.887.642-1.027.214-2.139.385-3.337.513-1.198.128-2.395.192-3.593.192-3.037 0-5.689-.449-7.956-1.347-2.224-.898-4.085-2.117-5.582-3.657-1.454-1.583-2.545-3.443-3.272-5.582-.684-2.139-1.027-4.449-1.027-6.93m22.457-3.657c-.043-.813-.193-1.604-.449-2.374-.214-.77-.578-1.454-1.091-2.053-.471-.599-1.091-1.091-1.861-1.476-.727-.385-1.647-.577-2.759-.577-1.069 0-1.989.193-2.759.577-.77.342-1.412.813-1.925 1.412-.513.599-.92 1.305-1.219 2.117-.257.77-.449 1.561-.577 2.374h12.64" style="-inkscape-font-specification:Ubuntu-Bold"/></g><g font-size="51.331" font-weight="bold" font-family="Ubuntu"><path d="M403.86 32.137c6.673 0 11.785 1.198 15.335 3.593 3.55 2.353 5.326 6.031 5.326 11.036 0 3.123-.727 5.668-2.182 7.636-1.412 1.925-3.465 3.443-6.16 4.556.898 1.112 1.839 2.395 2.823 3.85.984 1.412 1.946 2.909 2.887 4.491.984 1.54 1.925 3.165 2.823 4.876.898 1.668 1.732 3.315 2.502 4.941h-11.229c-.813-1.454-1.647-2.93-2.502-4.427-.813-1.497-1.668-2.952-2.567-4.363-.856-1.412-1.711-2.738-2.567-3.978-.856-1.283-1.711-2.438-2.567-3.465h-4.941v16.233h-10.01v-43.824c2.182-.428 4.427-.727 6.737-.898 2.353-.171 4.449-.257 6.288-.257m.577 8.534c-.727 0-1.39.021-1.989.064l-1.604.128v12.063h2.823c3.764 0 6.459-.471 8.085-1.412 1.625-.941 2.438-2.545 2.438-4.812 0-2.182-.834-3.721-2.502-4.62-1.625-.941-4.042-1.412-7.251-1.412" style="-inkscape-font-specification:Ubuntu-Bold"/><path d="M428.82 60.497c0-2.994.449-5.604 1.347-7.828.941-2.267 2.16-4.149 3.657-5.646 1.497-1.497 3.208-2.631 5.133-3.401 1.968-.77 3.978-1.155 6.031-1.155 4.791 0 8.577 1.476 11.357 4.427 2.78 2.909 4.171 7.208 4.171 12.897 0 .556-.021 1.176-.064 1.861-.043.642-.086 1.219-.128 1.732h-21.687c.214 1.968 1.134 3.529 2.759 4.684 1.625 1.155 3.807 1.732 6.545 1.732 1.754 0 3.465-.15 5.133-.449 1.711-.342 3.101-.749 4.171-1.219l1.283 7.764c-.513.257-1.198.513-2.053.77-.856.257-1.818.471-2.887.642-1.027.214-2.139.385-3.337.513-1.198.128-2.395.192-3.593.192-3.037 0-5.689-.449-7.956-1.347-2.224-.898-4.085-2.117-5.582-3.657-1.454-1.583-2.545-3.443-3.272-5.582-.684-2.139-1.027-4.449-1.027-6.93m22.457-3.657c-.043-.813-.193-1.604-.449-2.374-.214-.77-.577-1.454-1.091-2.053-.471-.599-1.091-1.091-1.861-1.476-.727-.385-1.647-.577-2.759-.577-1.069 0-1.989.193-2.759.577-.77.342-1.412.813-1.925 1.412-.513.599-.92 1.305-1.219 2.117-.257.77-.449 1.561-.577 2.374h12.64" style="-inkscape-font-specification:Ubuntu-Bold"/></g><path d="M10 86.668l43.209-74.821c8.033 13.984 16.106 27.944 24.182 41.901l9.473 16.381h-12.723l-3.718-6.435c-5.607-9.704-11.218-19.406-16.81-29.12l-.541-.94-.542.94c-8.561 14.846-17.133 29.69-25.703 44.534l-10.593 18.348-6.235-10.788z" fill="#e41f26"/><path d="M51.098 73.814l26.744-.011c4.768 0 15.39.009 15.39.009l-36.85-63.803 12.455-.009 43.196 74.825c-7.359-.013-14.714-.016-22.074-.016-9.262 0-18.526.006-27.79.014l-17.434.01 6.362-11.019z" fill="#e41f26"/><path d="M19.42 99.285c8.464-14.604 16.894-29.229 25.321-43.851l8.321-14.435 6.362 11.02-3.09 5.357c-5.805 10.068-11.61 20.136-17.433 30.194l-.545.939 73.683-.01-6.221 10.791-86.399-.005z" fill="#e41f26"/></g></svg>